<svg width="200" height="200" viewBox="0 0 200 200" xmlns="http://www.w3.org/2000/svg">
  <!-- Cuerpo del perrito -->
  <ellipse cx="100" cy="120" rx="45" ry="35" fill="#8B4513" stroke="#654321" stroke-width="2"/>
  
  <!-- Cabeza -->
  <circle cx="100" cy="80" r="35" fill="#8B4513" stroke="#654321" stroke-width="2"/>
  
  <!-- Orejas -->
  <ellipse cx="75" cy="60" rx="12" ry="18" fill="#A0522D" stroke="#654321" stroke-width="1" transform="rotate(-15 75 60)"/>
  <ellipse cx="125" cy="60" rx="12" ry="18" fill="#A0522D" stroke="#654321" stroke-width="1" transform="rotate(15 125 60)"/>
  
  <!-- Ojos -->
  <circle cx="90" cy="75" r="4" fill="#000"/>
  <circle cx="110" cy="75" r="4" fill="#000"/>
  <circle cx="91" cy="74" r="1.5" fill="#FFF"/>
  <circle cx="111" cy="74" r="1.5" fill="#FFF"/>
  
  <!-- Nariz -->
  <ellipse cx="100" cy="85" rx="3" ry="2" fill="#000"/>
  
  <!-- Boca feliz -->
  <path d="M 85 90 Q 100 100 115 90" stroke="#000" stroke-width="2" fill="none"/>
  
  <!-- Patas -->
  <ellipse cx="85" cy="150" rx="8" ry="12" fill="#8B4513" stroke="#654321" stroke-width="1"/>
  <ellipse cx="115" cy="150" rx="8" ry="12" fill="#8B4513" stroke="#654321" stroke-width="1"/>
  
  <!-- Cola -->
  <path d="M 140 110 Q 160 100 155 85" stroke="#8B4513" stroke-width="8" fill="none" stroke-linecap="round"/>
  
  <!-- Manchas -->
  <ellipse cx="85" cy="100" rx="8" ry="5" fill="#A0522D" opacity="0.7"/>
  <ellipse cx="115" cy="95" rx="6" ry="4" fill="#A0522D" opacity="0.7"/>
  
  <!-- Confeti animado -->
  <circle cx="50" cy="30" r="3" fill="#FF6B6B" opacity="0.8">
    <animate attributeName="cy" values="30;50;30" dur="2s" repeatCount="indefinite"/>
  </circle>
  <circle cx="150" cy="40" r="2" fill="#4ECDC4" opacity="0.8">
    <animate attributeName="cy" values="40;60;40" dur="1.5s" repeatCount="indefinite"/>
  </circle>
  <circle cx="40" cy="60" r="2.5" fill="#45B7D1" opacity="0.8">
    <animate attributeName="cy" values="60;80;60" dur="1.8s" repeatCount="indefinite"/>
  </circle>
  <circle cx="160" cy="20" r="2" fill="#96CEB4" opacity="0.8">
    <animate attributeName="cy" values="20;40;20" dur="2.2s" repeatCount="indefinite"/>
  </circle>
  
  <!-- Estrellas de celebración -->
  <g transform="translate(30, 20)">
    <path d="M0,-8 L2,-2 L8,0 L2,2 L0,8 L-2,2 L-8,0 L-2,-2 Z" fill="#FFD93D" opacity="0.9">
      <animateTransform attributeName="transform" type="rotate" values="0;360" dur="3s" repeatCount="indefinite"/>
    </path>
  </g>
  <g transform="translate(170, 30)">
    <path d="M0,-6 L1.5,-1.5 L6,0 L1.5,1.5 L0,6 L-1.5,1.5 L-6,0 L-1.5,-1.5 Z" fill="#FF6B6B" opacity="0.9">
      <animateTransform attributeName="transform" type="rotate" values="0;-360" dur="2.5s" repeatCount="indefinite"/>
    </path>
  </g>
</svg>
